<?xml version="1.0" standalone="no"?>
<!DOCTYPE svg PUBLIC "-//W3C//DTD SVG 20010904//EN"
 "http://www.w3.org/TR/2001/REC-SVG-20010904/DTD/svg10.dtd">
<svg version="1.0" xmlns="http://www.w3.org/2000/svg"
 width="512.000000pt" height="512.000000pt" viewBox="0 0 512.000000 512.000000"
 preserveAspectRatio="xMidYMid meet">
<metadata>
Created by potrace 1.14, written by Peter Selinger 2001-2017
</metadata>
<g transform="translate(0.000000,512.000000) scale(0.100000,-0.100000)"
fill="#000000" stroke="none">
<path d="M720 5084 c-76 -13 -110 -36 -110 -71 0 -9 20 -149 45 -311 33 -215
42 -297 34 -303 -6 -4 -39 -10 -73 -14 -96 -10 -284 -52 -376 -83 -111 -38
-162 -64 -205 -107 -29 -30 -35 -43 -35 -78 0 -47 79 -868 205 -2117 81 -813
85 -847 111 -898 19 -37 39 -60 68 -77 71 -41 360 -109 581 -137 148 -18 504
-15 655 6 256 34 508 97 565 141 l31 23 37 -375 c40 -403 46 -431 104 -486 53
-49 342 -121 615 -153 110 -13 194 -15 368 -11 232 6 350 19 543 62 247 55
311 85 353 167 15 28 89 721 214 1998 17 168 33 319 35 335 5 27 12 32 80 53
117 38 218 102 320 206 164 167 235 333 235 556 0 158 -39 288 -126 423 -113
174 -293 302 -509 360 -103 27 -306 29 -405 3 -171 -44 -287 -110 -410 -235
-101 -102 -164 -203 -200 -320 l-18 -56 -239 -3 -240 -2 -12 69 c-16 100 -15
104 33 178 90 140 126 261 126 429 0 319 -179 588 -486 730 -125 58 -226 77
-389 72 -124 -4 -151 -8 -235 -37 -52 -17 -131 -53 -174 -79 -159 -94 -306
-274 -357 -437 l-24 -75 -196 0 c-108 0 -216 -3 -240 -6 l-45 -6 -43 288 c-23
159 -47 305 -52 325 -16 64 -47 74 -159 53z m1657 -130 c30 -8 57 -23 63 -34
17 -32 12 -85 -10 -105 -19 -17 -25 -18 -88 -5 -96 20 -207 15 -276 -10 -31
-12 -90 -44 -130 -71 -41 -27 -83 -49 -95 -49 -48 0 -78 70 -51 120 15 29 140
107 216 136 121 45 253 52 371 18z m263 -134 c39 -39 11 -110 -44 -110 -35 0
-76 37 -76 67 0 58 77 86 120 43z m-1816 -102 c16 -26 -4 -53 -40 -53 -23 0
-30 5 -32 23 -2 13 -1 30 2 38 8 20 56 14 70 -8z m923 -95 c32 -43 -2 -103
-57 -103 -61 0 -91 69 -49 111 17 17 29 20 58 15 20 -3 42 -13 48 -23z m-806
-543 c25 -14 25 -56 -1 -70 -44 -23 -80 29 -44 64 18 19 20 19 45 6z m3434 -4
c66 -16 95 -42 95 -86 0 -71 -26 -85 -117 -64 -103 24 -214 15 -299 -25 -37
-17 -88 -47 -114 -65 -70 -50 -85 -53 -120 -17 -33 32 -36 47 -19 85 13 27 96
89 167 125 110 56 284 76 407 47z m-2985 -56 c21 -38 -22 -80 -61 -60 -19 10
-27 59 -12 73 15 15 63 7 73 -13z m3265 -85 c30 -29 32 -55 7 -86 -38 -46
-122 -17 -122 43 0 62 70 89 115 43z m-890 -199 c20 -30 6 -77 -28 -96 -53
-30 -109 20 -93 83 11 46 94 55 121 13z m-3524 -6 c23 -13 25 -52 4 -70 -12
-10 -21 -10 -40 -2 -30 14 -34 56 -7 71 21 13 20 13 43 1z m4424 -20 c15 -17
16 -24 7 -45 -20 -43 -82 -28 -82 20 0 45 44 59 75 25z m-2455 -10 c11 -11 20
-33 20 -50 0 -65 -79 -94 -119 -44 -27 35 -26 59 4 89 29 30 68 32 95 5z m665
-60 c10 -17 -5 -49 -26 -55 -26 -8 -49 11 -49 41 0 41 53 50 75 14z m-2110
-30 c0 -29 -4 -36 -23 -38 -43 -6 -69 37 -40 66 7 7 24 12 38 10 21 -3 25 -8
25 -38z m431 -35 c11 -43 -34 -73 -64 -43 -13 13 -16 50 -5 61 3 4 19 7 34 7
22 0 30 -6 35 -25z m-905 -185 c29 -16 25 -65 -7 -87 -24 -15 -29 -15 -53 -2
-69 39 -10 126 60 89z m4589 -30 c14 -26 4 -57 -20 -65 -44 -14 -80 41 -48 73
19 19 56 14 68 -8z m-1568 -95 c9 -21 8 -28 -7 -45 -31 -34 -75 -20 -75 25 0
48 62 63 82 20z m-2988 -117 c9 -15 26 -144 50 -373 20 -193 36 -358 36 -367
0 -42 -73 -65 -100 -33 -8 10 -26 140 -46 343 -42 410 -43 421 -19 438 28 21
63 17 79 -8z m594 -250 c30 -30 0 -75 -43 -64 -19 5 -25 13 -25 35 0 15 3 31
7 34 11 11 48 8 61 -5z m2766 -44 c24 -23 20 -53 -9 -66 -30 -13 -55 3 -55 36
0 42 36 59 64 30z m-1230 -16 c16 -26 -4 -53 -40 -53 -23 0 -30 5 -32 23 -2
13 -1 30 2 38 8 20 56 14 70 -8z m1744 -26 c4 -28 -14 -52 -38 -52 -26 0 -43
26 -36 55 6 22 11 26 39 23 25 -2 33 -8 35 -26z m-2340 -31 c73 -15 135 -31
138 -34 6 -6 -14 -543 -21 -564 -3 -7 -13 -13 -25 -13 -42 0 -384 80 -407 96
-14 8 -32 32 -40 52 -15 35 -14 46 26 232 39 188 42 196 76 228 44 41 74 41
253 3z m1206 -17 c9 -8 16 -22 16 -29 0 -16 -27 -45 -42 -45 -16 0 -48 31 -48
46 0 17 28 44 45 44 7 0 21 -7 29 -16z m-1724 -193 c33 -81 -86 -137 -126 -59
-13 24 -13 35 -4 59 23 55 107 55 130 0z m-696 23 c21 -21 20 -37 -3 -58 -25
-23 -59 -13 -67 20 -12 46 37 72 70 38z m1680 -147 c7 -19 7 -33 0 -44 -27
-43 -96 -29 -102 20 -5 40 14 59 57 55 29 -2 38 -8 45 -31z m-1469 -107 c6
-36 10 -41 48 -50 23 -6 47 -12 52 -14 6 -2 -12 -9 -40 -17 -46 -13 -50 -17
-57 -54 -12 -56 -24 -63 -33 -18 -9 51 -20 62 -67 69 -44 8 -42 15 10 29 32 9
39 16 51 57 17 55 27 54 36 -2z m3391 -6 c13 -51 -44 -72 -73 -27 -13 19 -12
24 6 42 25 25 59 17 67 -15z m-1905 -100 c14 -17 14 -11 60 -452 30 -290 31
-304 14 -322 -25 -27 -71 -26 -89 3 -12 19 -50 342 -71 607 -3 36 -8 80 -11
98 -7 46 17 82 55 82 16 0 35 -7 42 -16z m-1921 -14 c24 -24 25 -38 4 -68 -10
-15 -25 -22 -48 -22 -38 0 -56 15 -56 49 0 55 61 80 100 41z m2394 -106 c9 -8
16 -22 16 -29 0 -18 -27 -45 -45 -45 -16 0 -45 27 -45 42 0 16 31 48 46 48 7
0 20 -7 28 -16z m656 -133 c15 -29 13 -39 -14 -56 -31 -21 -66 -5 -66 28 0 46
59 66 80 28z m-1718 -28 c10 -9 18 -22 18 -29 0 -17 -28 -44 -45 -44 -7 0 -21
7 -29 16 -9 8 -16 22 -16 29 0 16 27 45 42 45 6 0 20 -7 30 -17z m-891 -49
c90 -19 175 -43 191 -52 15 -9 35 -32 45 -52 16 -33 15 -40 -6 -145 -62 -303
-72 -325 -140 -346 -33 -10 -62 -6 -227 30 -183 40 -190 42 -223 77 -33 36
-34 38 -28 103 4 36 22 133 40 215 52 229 61 233 348 170z m2954 -53 c286 -61
288 -64 229 -342 -43 -204 -58 -236 -119 -258 -37 -13 -53 -11 -215 24 -214
46 -237 55 -262 111 l-18 43 40 188 c23 112 47 198 58 213 16 22 75 60 94 60
4 0 91 -18 193 -39z m-3378 -19 c11 -7 16 -26 14 -49 0 -7 -10 -17 -21 -23
-27 -15 -60 4 -60 33 0 38 35 59 67 39z m1023 -112 c8 -14 8 -26 0 -40 -19
-35 -80 -20 -80 20 0 40 61 55 80 20z m2798 -222 c21 -21 14 -57 -13 -70 -22
-10 -29 -9 -47 10 -19 18 -20 25 -10 47 13 27 49 34 70 13z m-1594 -94 c9 -8
16 -22 16 -29 0 -7 -7 -21 -16 -29 -30 -30 -74 -13 -74 29 0 42 44 59 74 29z
m594 4 c27 -27 7 -78 -29 -78 -21 0 -49 26 -49 45 0 35 53 58 78 33z m-809
-119 c13 -24 13 -29 -2 -53 -13 -19 -26 -26 -50 -26 -42 0 -57 15 -57 57 0 37
21 54 65 50 20 -1 34 -10 44 -28z m-776 -61 c53 -62 -31 -149 -96 -98 -45 36
-33 103 23 123 23 8 53 -2 73 -25z m-1067 -23 c8 -33 -12 -57 -45 -53 -18 2
-27 10 -29 26 -6 37 5 52 37 52 24 0 32 -5 37 -25z m628 -51 c9 -8 16 -22 16
-29 0 -7 -7 -21 -16 -29 -8 -9 -22 -16 -29 -16 -7 0 -21 7 -29 16 -9 8 -16 22
-16 29 0 7 7 21 16 29 8 9 22 16 29 16 7 0 21 -7 29 -16z m2880 -36 c13 -19
14 -25 2 -43 -26 -39 -76 -26 -76 19 0 46 48 62 74 24z m-1261 -57 c196 -42
224 -55 246 -117 12 -36 10 -53 -27 -226 -22 -103 -48 -198 -57 -212 -9 -14
-35 -32 -58 -41 -41 -15 -48 -14 -226 24 -196 42 -223 54 -255 113 l-20 35 42
193 c23 106 49 204 57 217 18 26 67 52 100 52 11 0 100 -17 198 -38z m735
-243 c27 -27 7 -78 -29 -78 -21 0 -49 26 -49 45 0 35 53 58 78 33z m-145 -316
c24 -21 22 -77 -3 -102 -58 -58 -148 18 -109 91 21 39 74 45 112 11z m598 -24
c10 -26 10 -35 -2 -57 -45 -79 -164 -26 -129 58 24 58 107 58 131 -1z m-1347
-134 c20 -20 20 -27 -3 -55 -16 -21 -22 -22 -45 -11 -17 8 -26 19 -26 35 0 44
43 62 74 31z"/>
</g>
</svg>
